<svg version="1.1" xmlns="http://www.w3.org/2000/svg" viewBox="0 0 1382.0722250227584 639.7353357180331" width="1382.0722250227584" height="639.7353357180331">
  <!-- svg-source:excalidraw -->

  <defs>
    <style class="style-fonts">
      @font-face {
        font-family: "Virgil";
        src: url("https://excalidraw.com/Virgil.woff2");
      }
      @font-face {
        font-family: "Cascadia";
        src: url("https://excalidraw.com/Cascadia.woff2");
      }
      @font-face {
        font-family: "Assistant";
        src: url("https://excalidraw.com/Assistant-Regular.woff2");
      }
    </style>

  </defs>
  <rect x="0" y="0" width="1382.0722250227584" height="639.7353357180331" fill="#ffffff"></rect><g stroke-linecap="round" transform="translate(425.4821383158762 245.66190688346592) rotate(0 58.99343503021419 58.99343503021417)"><path d="M0 0 C0 0, 0 0, 0 0 M0 0 C0 0, 0 0, 0 0 M0.13 12.04 C2.34 9.5, 4.55 6.96, 10.63 -0.03 M0.13 12.04 C3.13 8.59, 6.13 5.14, 10.63 -0.03 M0.27 24.08 C5.43 18.14, 10.6 12.19, 21.26 -0.07 M0.27 24.08 C5.52 18.04, 10.77 12, 21.26 -0.07 M-0.26 36.88 C9.62 25.51, 19.5 14.15, 31.89 -0.1 M-0.26 36.88 C10.16 24.89, 20.59 12.9, 31.89 -0.1 M-0.12 48.92 C16.6 29.67, 33.33 10.43, 42.52 -0.14 M-0.12 48.92 C11.84 35.16, 23.8 21.4, 42.52 -0.14 M0.01 60.96 C16.48 42.01, 32.95 23.07, 53.15 -0.17 M0.01 60.96 C18.02 40.24, 36.04 19.51, 53.15 -0.17 M0.14 73 C15.34 55.52, 30.53 38.04, 63.78 -0.21 M0.14 73 C16.54 54.14, 32.93 35.28, 63.78 -0.21 M0.28 85.04 C28.95 52.06, 57.62 19.08, 74.41 -0.24 M0.28 85.04 C24.22 57.49, 48.17 29.95, 74.41 -0.24 M-0.25 97.84 C29.62 63.48, 59.48 29.13, 85.04 -0.28 M-0.25 97.84 C20.3 74.2, 40.85 50.56, 85.04 -0.28 M-0.11 109.88 C35.65 68.73, 71.42 27.58, 95.67 -0.31 M-0.11 109.88 C31.21 73.84, 62.53 37.81, 95.67 -0.31 M3.3 118.14 C35.04 81.63, 66.78 45.11, 106.3 -0.34 M3.3 118.14 C44.24 71.05, 85.17 23.96, 106.3 -0.34 M13.93 118.11 C41.85 85.99, 69.77 53.88, 116.27 0.38 M13.93 118.11 C50.72 75.79, 87.51 33.46, 116.27 0.38 M24.56 118.08 C44.56 95.07, 64.56 72.06, 119.03 9.4 M24.56 118.08 C53.1 85.24, 81.65 52.41, 119.03 9.4 M35.19 118.04 C64.75 84.03, 94.31 50.03, 118.51 22.19 M35.19 118.04 C59.08 90.56, 82.98 63.07, 118.51 22.19 M45.82 118.01 C73.26 86.44, 100.7 54.87, 118.64 34.23 M45.82 118.01 C63.13 98.09, 80.44 78.18, 118.64 34.23 M55.79 118.73 C71.96 100.13, 88.13 81.53, 118.78 46.27 M55.79 118.73 C76.77 94.6, 97.74 70.48, 118.78 46.27 M66.42 118.69 C78.85 104.39, 91.29 90.09, 118.91 58.32 M66.42 118.69 C81.89 100.9, 97.37 83.1, 118.91 58.32 M77.05 118.66 C88.74 105.21, 100.43 91.77, 118.39 71.11 M77.05 118.66 C92.77 100.58, 108.48 82.51, 118.39 71.11 M87.68 118.62 C95.15 110.03, 102.62 101.44, 118.52 83.15 M87.68 118.62 C96.06 108.99, 104.44 99.35, 118.52 83.15 M98.31 118.59 C104.51 111.46, 110.71 104.33, 118.65 95.19 M98.31 118.59 C103.76 112.32, 109.21 106.05, 118.65 95.19 M108.94 118.55 C112.49 114.47, 116.04 110.39, 118.79 107.23 M108.94 118.55 C112.63 114.31, 116.32 110.08, 118.79 107.23 M-0.31 117.72 C-0.31 117.72, -0.31 117.72, -0.31 117.72 M-0.31 117.72 C-0.31 117.72, -0.31 117.72, -0.31 117.72 M12.49 118.24 C7.65 114.04, 2.82 109.84, -0.34 107.09 M12.49 118.24 C8.42 114.7, 4.35 111.16, -0.34 107.09 M24.53 118.11 C18.11 112.53, 11.69 106.95, -0.38 96.46 M24.53 118.11 C16.71 111.32, 8.9 104.52, -0.38 96.46 M36.57 117.98 C22.34 105.61, 8.11 93.24, 0.34 86.49 M36.57 117.98 C28.53 110.99, 20.49 104, 0.34 86.49 M48.61 117.84 C35.65 106.58, 22.7 95.32, 0.31 75.86 M48.61 117.84 C37 107.75, 25.39 97.66, 0.31 75.86 M60.65 117.71 C40.85 100.5, 21.05 83.28, 0.28 65.23 M60.65 117.71 C41.45 101.02, 22.25 84.33, 0.28 65.23 M73.45 118.23 C56.42 103.43, 39.4 88.64, 0.24 54.6 M73.45 118.23 C48.2 96.28, 22.95 74.33, 0.24 54.6 M85.49 118.1 C66.85 101.89, 48.2 85.69, 0.21 43.97 M85.49 118.1 C64.77 100.09, 44.06 82.09, 0.21 43.97 M97.53 117.97 C62.66 87.65, 27.78 57.34, 0.17 33.34 M97.53 117.97 C62.86 87.83, 28.18 57.69, 0.17 33.34 M109.57 117.83 C74.74 87.56, 39.91 57.28, 0.14 22.71 M109.57 117.83 C72.16 85.32, 34.76 52.8, 0.14 22.71 M118.59 115.08 C92.53 92.42, 66.47 69.77, 0.1 12.08 M118.59 115.08 C75.85 77.92, 33.11 40.76, 0.1 12.08 M118.56 104.45 C71.42 63.47, 24.28 22.49, 0.07 1.45 M118.56 104.45 C74.97 66.55, 31.38 28.66, 0.07 1.45 M118.52 93.82 C90.31 69.29, 62.1 44.77, 9.85 -0.66 M118.52 93.82 C85.58 65.18, 52.63 36.54, 9.85 -0.66 M118.49 83.19 C94.81 62.6, 71.12 42.01, 21.89 -0.79 M118.49 83.19 C81.59 51.11, 44.7 19.04, 21.89 -0.79 M118.45 72.56 C94.26 51.53, 70.07 30.5, 33.93 -0.92 M118.45 72.56 C94.31 51.57, 70.16 30.57, 33.93 -0.92 M118.42 61.93 C92.22 39.15, 66.01 16.37, 46.72 -0.4 M118.42 61.93 C100.31 46.18, 82.19 30.44, 46.72 -0.4 M118.39 51.3 C95.96 31.8, 73.54 12.31, 58.76 -0.53 M118.39 51.3 C102.38 37.39, 86.38 23.48, 58.76 -0.53 M118.35 40.67 C104.99 29.05, 91.62 17.43, 70.8 -0.67 M118.35 40.67 C101.4 25.93, 84.45 11.2, 70.8 -0.67 M118.32 30.04 C105.1 18.55, 91.88 7.06, 82.85 -0.8 M118.32 30.04 C105.22 18.65, 92.13 7.27, 82.85 -0.8 M118.28 19.41 C112.87 14.7, 107.45 9.99, 94.89 -0.93 M118.28 19.41 C111.78 13.76, 105.28 8.11, 94.89 -0.93 M118.25 8.78 C114.16 5.23, 110.08 1.68, 107.68 -0.41 M118.25 8.78 C114.4 5.44, 110.56 2.09, 107.68 -0.41" stroke="#e6498088" stroke-width="1" fill="none"></path><path d="M0 0 C38.07 0, 76.13 0, 117.99 0 M0 0 C42.97 0, 85.95 0, 117.99 0 M117.99 0 C117.99 46.79, 117.99 93.59, 117.99 117.99 M117.99 0 C117.99 30.13, 117.99 60.26, 117.99 117.99 M117.99 117.99 C84.61 117.99, 51.23 117.99, 0 117.99 M117.99 117.99 C78.84 117.99, 39.69 117.99, 0 117.99 M0 117.99 C0 92.23, 0 66.47, 0 0 M0 117.99 C0 72.14, 0 26.3, 0 0" stroke="#000000" stroke-width="2" fill="none"></path></g><g stroke-linecap="round"><g transform="translate(470.9161139253886 282.33555583691236) rotate(0 13.84135427054116 0)"><path d="M0 0 C6.53 0, 13.07 0, 27.68 0" stroke="#000000" stroke-width="2.5" fill="none" stroke-dasharray="1.5 8"></path></g></g><mask></mask><g stroke-linecap="round"><g transform="translate(468.2300331017361 327.5549109093729) rotate(0 15.637540933138553 0)"><path d="M0 0 C8.37 0, 16.75 0, 31.28 0" stroke="#000000" stroke-width="2.5" fill="none" stroke-dasharray="1.5 8"></path></g></g><mask></mask><g stroke-linecap="round"><g transform="translate(437.5704724993186 274.724458380395) rotate(0 15.470751912472224 30.66912327774486)"><path d="M0 0 C9.25 -4.04, 18.5 -8.07, 30.94 -13.51 M0 0 C7.66 -3.35, 15.33 -6.69, 30.94 -13.51 M30.94 -13.51 C30.89 14.95, 30.84 43.4, 30.79 74.84 M30.94 -13.51 C30.9 8.05, 30.87 29.61, 30.79 74.84 M30.79 74.84 C21.31 70.58, 11.84 66.31, 0.15 61.05 M30.79 74.84 C24.07 71.82, 17.36 68.8, 0.15 61.05 M0.15 61.05 C0.1 41.62, 0.05 22.19, 0 0 M0.15 61.05 C0.1 40.51, 0.05 19.97, 0 0" stroke="#000000" stroke-width="2" fill="none"></path></g></g><mask></mask><g stroke-linecap="round"><g transform="translate(500.4589185169018 260.8813687397508) rotate(0 15.490578667067894 44.05256961125516)"><path d="M0 0 C0.09 22.78, 0.19 45.56, 0.36 88.11 M0 0 C0.11 27.3, 0.22 54.61, 0.36 88.11 M0.36 88.11 C6.6 85.38, 12.85 82.65, 30.95 74.74 M0.36 88.11 C9.62 84.06, 18.87 80.02, 30.95 74.74 M30.95 74.74 C30.96 58.92, 30.97 43.09, 30.98 13.7 M30.95 74.74 C30.96 51.78, 30.97 28.82, 30.98 13.7 M30.98 13.7 C23.53 10.4, 16.07 7.11, 0 0 M30.98 13.7 C19.69 8.71, 8.4 3.72, 0 0" stroke="#000000" stroke-width="2" fill="none"></path></g></g><mask></mask><g stroke-linecap="round"><g transform="translate(476.15282902913646 315.87632360765497) rotate(0 8.304380836103746 -11.135567624008331)"><path d="M0 0 C6.47 -8.67, 12.93 -17.34, 16.61 -22.27 M0 0 C4.61 -6.19, 9.23 -12.37, 16.61 -22.27" stroke="#000000" stroke-width="2" fill="none"></path></g></g><mask></mask><g stroke-linecap="round"><g transform="translate(490.40269667791586 297.86669500103085) rotate(0 4.557517245609233 7.677283383873487)"><path d="M0 0 C1.95 1.7, 3.89 3.4, 9.14 7.98 M0 0 C3.12 2.73, 6.25 5.45, 9.14 7.98 M9.14 7.98 C5.76 10.7, 2.38 13.42, -0.02 15.35 M9.14 7.98 C5.78 10.68, 2.43 13.38, -0.02 15.35" stroke="#000000" stroke-width="2" fill="none"></path></g></g><mask></mask><g stroke-linecap="round"><g transform="translate(468.85809498438744 296.87506703513657) rotate(180 4.557517245609233 7.677283383873487)"><path d="M0 0 C3.62 3.16, 7.25 6.33, 9.14 7.98 M0 0 C2.33 2.04, 4.67 4.07, 9.14 7.98 M9.14 7.98 C6.55 10.06, 3.96 12.15, -0.02 15.35 M9.14 7.98 C6.1 10.42, 3.06 12.87, -0.02 15.35" stroke="#000000" stroke-width="2" fill="none"></path></g></g><mask></mask><g transform="translate(420.9255562894034 377.7231850631131) rotate(0 64.453125 24)"><text x="64.453125" y="19.3125" font-family="Cascadia, Segoe UI Emoji" font-size="20px" fill="#000000" text-anchor="middle" style="white-space: pre;" direction="ltr" dominant-baseline="alphabetic">API Gateway</text><text x="64.453125" y="43.3125" font-family="Cascadia, Segoe UI Emoji" font-size="20px" fill="#000000" text-anchor="middle" style="white-space: pre;" direction="ltr" dominant-baseline="alphabetic">(REST)</text></g><g stroke-linecap="round"><g transform="translate(854.21769525385 444.3492648856313) rotate(0 17.069078472176898 41.586482095849604)"><path d="M0 0 C11.85 0, 23.7 0, 34.14 0 M0 0 C13.25 0, 26.51 0, 34.14 0 M34.14 0 C40.39 6.25, 46.64 12.51, 58.97 24.83 M34.14 0 C41.63 7.49, 49.13 14.99, 58.97 24.83 M58.97 24.83 C58.97 36.72, 58.97 48.62, 58.97 58.35 M58.97 24.83 C58.97 37.22, 58.97 49.6, 58.97 58.35 M58.97 58.35 C52.66 64.99, 46.35 71.64, 36 82.55 M58.97 58.35 C53.23 64.4, 47.49 70.45, 36 82.55 M36 82.55 C23.01 82.78, 10.03 83, 0 83.17 M36 82.55 C23.87 82.76, 11.74 82.97, 0 83.17 M0 83.17 C-6.74 75.9, -13.48 68.63, -23.59 57.72 M0 83.17 C-7.53 75.05, -15.06 66.93, -23.59 57.72 M-23.59 57.72 C-24 46.51, -24.42 35.29, -24.83 24.21 M-23.59 57.72 C-23.88 49.68, -24.18 41.65, -24.83 24.21 M-24.83 24.21 C-14.98 14.6, -5.13 5, 0 0 M-24.83 24.21 C-18.49 18.02, -12.14 11.84, 0 0" stroke="#e95d8e" stroke-width="2" fill="none"></path></g></g><mask></mask><g stroke-linecap="round"><g transform="translate(884.0109958598321 457.22866046009284) rotate(0 7.758672032807681 28.862259962044924)"><path d="M0 0 C3.86 3.71, 7.72 7.42, 15.52 14.9 M0 0 C5.62 5.39, 11.24 10.79, 15.52 14.9 M15.52 14.9 C15.52 21.45, 15.52 28.01, 15.52 43.45 M15.52 14.9 C15.52 23.35, 15.52 31.81, 15.52 43.45 M15.52 43.45 C11.88 46.93, 8.25 50.41, 0.62 57.72 M15.52 43.45 C9.59 49.13, 3.67 54.81, 0.62 57.72 M0.62 57.72 C0.48 44.94, 0.35 32.16, 0 0 M0.62 57.72 C0.46 42.75, 0.3 27.77, 0 0" stroke="#e95d8e" stroke-width="2" fill="none"></path></g></g><mask></mask><g stroke-linecap="round"><g transform="translate(859.4935922361603 457.22866046009284) rotate(0 -7.758672032807681 28.862259962044924)"><path d="M0 0 C-5.53 5.31, -11.06 10.62, -15.52 14.9 M0 0 C-5.78 5.55, -11.56 11.1, -15.52 14.9 M-15.52 14.9 C-15.52 25.44, -15.52 35.98, -15.52 43.45 M-15.52 14.9 C-15.52 21.51, -15.52 28.12, -15.52 43.45 M-15.52 43.45 C-11.38 47.41, -7.24 51.38, -0.62 57.72 M-15.52 43.45 C-9.76 48.97, -4 54.48, -0.62 57.72 M-0.62 57.72 C-0.39 36.73, -0.17 15.74, 0 0 M-0.62 57.72 C-0.45 41.94, -0.28 26.16, 0 0" stroke="#e95d8e" stroke-width="2" fill="none"></path></g></g><mask></mask><g stroke-linecap="round" transform="translate(864.3039688965002 485.31505321885504) rotate(0 1.1638008049212658 1.163800804921209)"><path d="M2.33 1.16 C2.33 1.23, 2.32 1.3, 2.31 1.37 C2.3 1.43, 2.28 1.5, 2.26 1.56 C2.23 1.63, 2.21 1.69, 2.17 1.75 C2.14 1.8, 2.1 1.86, 2.06 1.91 C2.01 1.96, 1.96 2.01, 1.91 2.06 C1.86 2.1, 1.8 2.14, 1.75 2.17 C1.69 2.21, 1.63 2.23, 1.56 2.26 C1.5 2.28, 1.43 2.3, 1.37 2.31 C1.3 2.32, 1.23 2.33, 1.16 2.33 C1.1 2.33, 1.03 2.32, 0.96 2.31 C0.9 2.3, 0.83 2.28, 0.77 2.26 C0.7 2.23, 0.64 2.21, 0.58 2.17 C0.52 2.14, 0.47 2.1, 0.42 2.06 C0.36 2.01, 0.32 1.96, 0.27 1.91 C0.23 1.86, 0.19 1.8, 0.16 1.75 C0.12 1.69, 0.09 1.63, 0.07 1.56 C0.05 1.5, 0.03 1.43, 0.02 1.37 C0.01 1.3, 0 1.23, 0 1.16 C0 1.1, 0.01 1.03, 0.02 0.96 C0.03 0.9, 0.05 0.83, 0.07 0.77 C0.09 0.7, 0.12 0.64, 0.16 0.58 C0.19 0.52, 0.23 0.47, 0.27 0.42 C0.32 0.36, 0.36 0.32, 0.42 0.27 C0.47 0.23, 0.52 0.19, 0.58 0.16 C0.64 0.12, 0.7 0.09, 0.77 0.07 C0.83 0.05, 0.9 0.03, 0.96 0.02 C1.03 0.01, 1.1 0, 1.16 0 C1.23 0, 1.3 0.01, 1.37 0.02 C1.43 0.03, 1.5 0.05, 1.56 0.07 C1.63 0.09, 1.69 0.12, 1.75 0.16 C1.8 0.19, 1.86 0.23, 1.91 0.27 C1.96 0.32, 2.01 0.36, 2.06 0.42 C2.1 0.47, 2.14 0.52, 2.17 0.58 C2.21 0.64, 2.23 0.7, 2.26 0.77 C2.28 0.83, 2.3 0.9, 2.31 0.96 C2.32 1.03, 2.32 1.13, 2.33 1.16 C2.33 1.2, 2.33 1.13, 2.33 1.16" stroke="#e95d8e" stroke-width="2" fill="none"></path></g><g stroke-linecap="round" transform="translate(876.8730175896492 485.31505321885504) rotate(0 1.1638008049212658 1.163800804921209)"><path d="M2.33 1.16 C2.33 1.23, 2.32 1.3, 2.31 1.37 C2.3 1.43, 2.28 1.5, 2.26 1.56 C2.23 1.63, 2.21 1.69, 2.17 1.75 C2.14 1.8, 2.1 1.86, 2.06 1.91 C2.01 1.96, 1.96 2.01, 1.91 2.06 C1.86 2.1, 1.8 2.14, 1.75 2.17 C1.69 2.21, 1.63 2.23, 1.56 2.26 C1.5 2.28, 1.43 2.3, 1.37 2.31 C1.3 2.32, 1.23 2.33, 1.16 2.33 C1.1 2.33, 1.03 2.32, 0.96 2.31 C0.9 2.3, 0.83 2.28, 0.77 2.26 C0.7 2.23, 0.64 2.21, 0.58 2.17 C0.52 2.14, 0.47 2.1, 0.42 2.06 C0.36 2.01, 0.32 1.96, 0.27 1.91 C0.23 1.86, 0.19 1.8, 0.16 1.75 C0.12 1.69, 0.09 1.63, 0.07 1.56 C0.05 1.5, 0.03 1.43, 0.02 1.37 C0.01 1.3, 0 1.23, 0 1.16 C0 1.1, 0.01 1.03, 0.02 0.96 C0.03 0.9, 0.05 0.83, 0.07 0.77 C0.09 0.7, 0.12 0.64, 0.16 0.58 C0.19 0.52, 0.23 0.47, 0.27 0.42 C0.32 0.36, 0.36 0.32, 0.42 0.27 C0.47 0.23, 0.52 0.19, 0.58 0.16 C0.64 0.12, 0.7 0.09, 0.77 0.07 C0.83 0.05, 0.9 0.03, 0.96 0.02 C1.03 0.01, 1.1 0, 1.16 0 C1.23 0, 1.3 0.01, 1.37 0.02 C1.43 0.03, 1.5 0.05, 1.56 0.07 C1.63 0.09, 1.69 0.12, 1.75 0.16 C1.8 0.19, 1.86 0.23, 1.91 0.27 C1.96 0.32, 2.01 0.36, 2.06 0.42 C2.1 0.47, 2.14 0.52, 2.17 0.58 C2.21 0.64, 2.23 0.7, 2.26 0.77 C2.28 0.83, 2.3 0.9, 2.31 0.96 C2.32 1.03, 2.32 1.13, 2.33 1.16 C2.33 1.2, 2.33 1.13, 2.33 1.16" stroke="#e95d8e" stroke-width="2" fill="none"></path></g><g stroke-linecap="round" transform="translate(870.5884932430743 485.31505321885504) rotate(0 1.1638008049212658 1.163800804921209)"><path d="M2.33 1.16 C2.33 1.23, 2.32 1.3, 2.31 1.37 C2.3 1.43, 2.28 1.5, 2.26 1.56 C2.23 1.63, 2.21 1.69, 2.17 1.75 C2.14 1.8, 2.1 1.86, 2.06 1.91 C2.01 1.96, 1.96 2.01, 1.91 2.06 C1.86 2.1, 1.8 2.14, 1.75 2.17 C1.69 2.21, 1.63 2.23, 1.56 2.26 C1.5 2.28, 1.43 2.3, 1.37 2.31 C1.3 2.32, 1.23 2.33, 1.16 2.33 C1.1 2.33, 1.03 2.32, 0.96 2.31 C0.9 2.3, 0.83 2.28, 0.77 2.26 C0.7 2.23, 0.64 2.21, 0.58 2.17 C0.52 2.14, 0.47 2.1, 0.42 2.06 C0.36 2.01, 0.32 1.96, 0.27 1.91 C0.23 1.86, 0.19 1.8, 0.16 1.75 C0.12 1.69, 0.09 1.63, 0.07 1.56 C0.05 1.5, 0.03 1.43, 0.02 1.37 C0.01 1.3, 0 1.23, 0 1.16 C0 1.1, 0.01 1.03, 0.02 0.96 C0.03 0.9, 0.05 0.83, 0.07 0.77 C0.09 0.7, 0.12 0.64, 0.16 0.58 C0.19 0.52, 0.23 0.47, 0.27 0.42 C0.32 0.36, 0.36 0.32, 0.42 0.27 C0.47 0.23, 0.52 0.19, 0.58 0.16 C0.64 0.12, 0.7 0.09, 0.77 0.07 C0.83 0.05, 0.9 0.03, 0.96 0.02 C1.03 0.01, 1.1 0, 1.16 0 C1.23 0, 1.3 0.01, 1.37 0.02 C1.43 0.03, 1.5 0.05, 1.56 0.07 C1.63 0.09, 1.69 0.12, 1.75 0.16 C1.8 0.19, 1.86 0.23, 1.91 0.27 C1.96 0.32, 2.01 0.36, 2.06 0.42 C2.1 0.47, 2.14 0.52, 2.17 0.58 C2.21 0.64, 2.23 0.7, 2.26 0.77 C2.28 0.83, 2.3 0.9, 2.31 0.96 C2.32 1.03, 2.32 1.13, 2.33 1.16 C2.33 1.2, 2.33 1.13, 2.33 1.16" stroke="#e95d8e" stroke-width="2" fill="none"></path></g><g transform="translate(777.8417940193588 539.2221551922453) rotate(0 93.90281289794439 9.615648040749505)"><text x="93.90281289794437" y="15.475183565581233" font-family="Cascadia, Segoe UI Emoji" font-size="16.02608006791584px" fill="#000000" text-anchor="middle" style="white-space: pre;" direction="ltr" dominant-baseline="alphabetic">POST /get-upload-url</text></g><g stroke-linecap="round"><g transform="translate(854.21769525385 133.7933291787091) rotate(0 17.069078472176898 41.586482095849604)"><path d="M0 0 C9.9 0, 19.81 0, 34.14 0 M0 0 C11.34 0, 22.69 0, 34.14 0 M34.14 0 C43.18 9.04, 52.21 18.08, 58.97 24.83 M34.14 0 C41.76 7.63, 49.39 15.25, 58.97 24.83 M58.97 24.83 C58.97 32.16, 58.97 39.5, 58.97 58.35 M58.97 24.83 C58.97 33.27, 58.97 41.71, 58.97 58.35 M58.97 58.35 C51.27 66.46, 43.58 74.57, 36 82.55 M58.97 58.35 C53.96 63.62, 48.96 68.89, 36 82.55 M36 82.55 C24.96 82.74, 13.92 82.93, 0 83.17 M36 82.55 C23.38 82.77, 10.76 82.99, 0 83.17 M0 83.17 C-7.09 75.52, -14.19 67.86, -23.59 57.72 M0 83.17 C-6.62 76.03, -13.24 68.88, -23.59 57.72 M-23.59 57.72 C-23.86 50.46, -24.12 43.2, -24.83 24.21 M-23.59 57.72 C-23.85 50.54, -24.12 43.36, -24.83 24.21 M-24.83 24.21 C-16.25 15.85, -7.68 7.49, 0 0 M-24.83 24.21 C-16.8 16.38, -8.78 8.56, 0 0" stroke="#e95d8e" stroke-width="2" fill="none"></path></g></g><mask></mask><g stroke-linecap="round"><g transform="translate(884.0109958598321 146.6727247531706) rotate(0 7.758672032807681 28.86225996204493)"><path d="M0 0 C5.56 5.33, 11.11 10.67, 15.52 14.9 M0 0 C3.6 3.46, 7.2 6.92, 15.52 14.9 M15.52 14.9 C15.52 20.7, 15.52 26.5, 15.52 43.45 M15.52 14.9 C15.52 23.61, 15.52 32.33, 15.52 43.45 M15.52 43.45 C12.48 46.36, 9.44 49.27, 0.62 57.72 M15.52 43.45 C11.46 47.33, 7.41 51.22, 0.62 57.72 M0.62 57.72 C0.45 42, 0.28 26.29, 0 0 M0.62 57.72 C0.48 44.28, 0.33 30.84, 0 0" stroke="#e95d8e" stroke-width="2" fill="none"></path></g></g><mask></mask><g stroke-linecap="round"><g transform="translate(859.4935922361594 146.6727247531706) rotate(0 -7.758672032807681 28.86225996204493)"><path d="M0 0 C-5.2 4.99, -10.39 9.98, -15.52 14.9 M0 0 C-4.86 4.67, -9.72 9.33, -15.52 14.9 M-15.52 14.9 C-15.52 22.5, -15.52 30.11, -15.52 43.45 M-15.52 14.9 C-15.52 25.03, -15.52 35.17, -15.52 43.45 M-15.52 43.45 C-11.47 47.33, -7.41 51.22, -0.62 57.72 M-15.52 43.45 C-12.48 46.36, -9.44 49.27, -0.62 57.72 M-0.62 57.72 C-0.43 40.2, -0.24 22.67, 0 0 M-0.62 57.72 C-0.47 43.31, -0.31 28.9, 0 0" stroke="#e95d8e" stroke-width="2" fill="none"></path></g></g><mask></mask><g stroke-linecap="round" transform="translate(864.3039688965002 174.75911751193274) rotate(0 1.1638008049212658 1.163800804921209)"><path d="M2.33 1.16 C2.33 1.23, 2.32 1.3, 2.31 1.37 C2.3 1.43, 2.28 1.5, 2.26 1.56 C2.23 1.63, 2.21 1.69, 2.17 1.75 C2.14 1.8, 2.1 1.86, 2.06 1.91 C2.01 1.96, 1.96 2.01, 1.91 2.06 C1.86 2.1, 1.8 2.14, 1.75 2.17 C1.69 2.21, 1.63 2.23, 1.56 2.26 C1.5 2.28, 1.43 2.3, 1.37 2.31 C1.3 2.32, 1.23 2.33, 1.16 2.33 C1.1 2.33, 1.03 2.32, 0.96 2.31 C0.9 2.3, 0.83 2.28, 0.77 2.26 C0.7 2.23, 0.64 2.21, 0.58 2.17 C0.52 2.14, 0.47 2.1, 0.42 2.06 C0.36 2.01, 0.32 1.96, 0.27 1.91 C0.23 1.86, 0.19 1.8, 0.16 1.75 C0.12 1.69, 0.09 1.63, 0.07 1.56 C0.05 1.5, 0.03 1.43, 0.02 1.37 C0.01 1.3, 0 1.23, 0 1.16 C0 1.1, 0.01 1.03, 0.02 0.96 C0.03 0.9, 0.05 0.83, 0.07 0.77 C0.09 0.7, 0.12 0.64, 0.16 0.58 C0.19 0.52, 0.23 0.47, 0.27 0.42 C0.32 0.36, 0.36 0.32, 0.42 0.27 C0.47 0.23, 0.52 0.19, 0.58 0.16 C0.64 0.12, 0.7 0.09, 0.77 0.07 C0.83 0.05, 0.9 0.03, 0.96 0.02 C1.03 0.01, 1.1 0, 1.16 0 C1.23 0, 1.3 0.01, 1.37 0.02 C1.43 0.03, 1.5 0.05, 1.56 0.07 C1.63 0.09, 1.69 0.12, 1.75 0.16 C1.8 0.19, 1.86 0.23, 1.91 0.27 C1.96 0.32, 2.01 0.36, 2.06 0.42 C2.1 0.47, 2.14 0.52, 2.17 0.58 C2.21 0.64, 2.23 0.7, 2.26 0.77 C2.28 0.83, 2.3 0.9, 2.31 0.96 C2.32 1.03, 2.32 1.13, 2.33 1.16 C2.33 1.2, 2.33 1.13, 2.33 1.16" stroke="#e95d8e" stroke-width="2" fill="none"></path></g><g stroke-linecap="round" transform="translate(876.8730175896492 174.75911751193274) rotate(0 1.1638008049212658 1.163800804921209)"><path d="M2.33 1.16 C2.33 1.23, 2.32 1.3, 2.31 1.37 C2.3 1.43, 2.28 1.5, 2.26 1.56 C2.23 1.63, 2.21 1.69, 2.17 1.75 C2.14 1.8, 2.1 1.86, 2.06 1.91 C2.01 1.96, 1.96 2.01, 1.91 2.06 C1.86 2.1, 1.8 2.14, 1.75 2.17 C1.69 2.21, 1.63 2.23, 1.56 2.26 C1.5 2.28, 1.43 2.3, 1.37 2.31 C1.3 2.32, 1.23 2.33, 1.16 2.33 C1.1 2.33, 1.03 2.32, 0.96 2.31 C0.9 2.3, 0.83 2.28, 0.77 2.26 C0.7 2.23, 0.64 2.21, 0.58 2.17 C0.52 2.14, 0.47 2.1, 0.42 2.06 C0.36 2.01, 0.32 1.96, 0.27 1.91 C0.23 1.86, 0.19 1.8, 0.16 1.75 C0.12 1.69, 0.09 1.63, 0.07 1.56 C0.05 1.5, 0.03 1.43, 0.02 1.37 C0.01 1.3, 0 1.23, 0 1.16 C0 1.1, 0.01 1.03, 0.02 0.96 C0.03 0.9, 0.05 0.83, 0.07 0.77 C0.09 0.7, 0.12 0.64, 0.16 0.58 C0.19 0.52, 0.23 0.47, 0.27 0.42 C0.32 0.36, 0.36 0.32, 0.42 0.27 C0.47 0.23, 0.52 0.19, 0.58 0.16 C0.64 0.12, 0.7 0.09, 0.77 0.07 C0.83 0.05, 0.9 0.03, 0.96 0.02 C1.03 0.01, 1.1 0, 1.16 0 C1.23 0, 1.3 0.01, 1.37 0.02 C1.43 0.03, 1.5 0.05, 1.56 0.07 C1.63 0.09, 1.69 0.12, 1.75 0.16 C1.8 0.19, 1.86 0.23, 1.91 0.27 C1.96 0.32, 2.01 0.36, 2.06 0.42 C2.1 0.47, 2.14 0.52, 2.17 0.58 C2.21 0.64, 2.23 0.7, 2.26 0.77 C2.28 0.83, 2.3 0.9, 2.31 0.96 C2.32 1.03, 2.32 1.13, 2.33 1.16 C2.33 1.2, 2.33 1.13, 2.33 1.16" stroke="#e95d8e" stroke-width="2" fill="none"></path></g><g stroke-linecap="round" transform="translate(870.5884932430743 174.75911751193274) rotate(0 1.1638008049212658 1.163800804921209)"><path d="M2.33 1.16 C2.33 1.23, 2.32 1.3, 2.31 1.37 C2.3 1.43, 2.28 1.5, 2.26 1.56 C2.23 1.63, 2.21 1.69, 2.17 1.75 C2.14 1.8, 2.1 1.86, 2.06 1.91 C2.01 1.96, 1.96 2.01, 1.91 2.06 C1.86 2.1, 1.8 2.14, 1.75 2.17 C1.69 2.21, 1.63 2.23, 1.56 2.26 C1.5 2.28, 1.43 2.3, 1.37 2.31 C1.3 2.32, 1.23 2.33, 1.16 2.33 C1.1 2.33, 1.03 2.32, 0.96 2.31 C0.9 2.3, 0.83 2.28, 0.77 2.26 C0.7 2.23, 0.64 2.21, 0.58 2.17 C0.52 2.14, 0.47 2.1, 0.42 2.06 C0.36 2.01, 0.32 1.96, 0.27 1.91 C0.23 1.86, 0.19 1.8, 0.16 1.75 C0.12 1.69, 0.09 1.63, 0.07 1.56 C0.05 1.5, 0.03 1.43, 0.02 1.37 C0.01 1.3, 0 1.23, 0 1.16 C0 1.1, 0.01 1.03, 0.02 0.96 C0.03 0.9, 0.05 0.83, 0.07 0.77 C0.09 0.7, 0.12 0.64, 0.16 0.58 C0.19 0.52, 0.23 0.47, 0.27 0.42 C0.32 0.36, 0.36 0.32, 0.42 0.27 C0.47 0.23, 0.52 0.19, 0.58 0.16 C0.64 0.12, 0.7 0.09, 0.77 0.07 C0.83 0.05, 0.9 0.03, 0.96 0.02 C1.03 0.01, 1.1 0, 1.16 0 C1.23 0, 1.3 0.01, 1.37 0.02 C1.43 0.03, 1.5 0.05, 1.56 0.07 C1.63 0.09, 1.69 0.12, 1.75 0.16 C1.8 0.19, 1.86 0.23, 1.91 0.27 C1.96 0.32, 2.01 0.36, 2.06 0.42 C2.1 0.47, 2.14 0.52, 2.17 0.58 C2.21 0.64, 2.23 0.7, 2.26 0.77 C2.28 0.83, 2.3 0.9, 2.31 0.96 C2.32 1.03, 2.32 1.13, 2.33 1.16 C2.33 1.2, 2.33 1.13, 2.33 1.16" stroke="#e95d8e" stroke-width="2" fill="none"></path></g><g transform="translate(791.9272159540503 228.66621948532293) rotate(0 79.81739096325259 9.615648040749505)"><text x="79.8173909632527" y="15.475183565581233" font-family="Cascadia, Segoe UI Emoji" font-size="16.02608006791584px" fill="#000000" text-anchor="middle" style="white-space: pre;" direction="ltr" dominant-baseline="alphabetic">GET /spreadsheets</text></g><g stroke-linecap="round"><g transform="translate(854.21769525385 286.47383476596076) rotate(0 17.069078472176898 41.586482095849604)"><path d="M0 0 C9.16 0, 18.32 0, 34.14 0 M0 0 C7 0, 14 0, 34.14 0 M34.14 0 C40.72 6.58, 47.3 13.16, 58.97 24.83 M34.14 0 C41.38 7.24, 48.63 14.49, 58.97 24.83 M58.97 24.83 C58.97 33.65, 58.97 42.47, 58.97 58.35 M58.97 24.83 C58.97 31.56, 58.97 38.29, 58.97 58.35 M58.97 58.35 C53.11 64.51, 47.26 70.68, 36 82.55 M58.97 58.35 C53.66 63.94, 48.35 69.54, 36 82.55 M36 82.55 C26.01 82.72, 16.03 82.9, 0 83.17 M36 82.55 C23.59 82.77, 11.18 82.98, 0 83.17 M0 83.17 C-6.42 76.24, -12.84 69.31, -23.59 57.72 M0 83.17 C-8.42 74.09, -16.83 65.01, -23.59 57.72 M-23.59 57.72 C-23.89 49.53, -24.19 41.34, -24.83 24.21 M-23.59 57.72 C-23.87 50.11, -24.15 42.49, -24.83 24.21 M-24.83 24.21 C-16.84 16.42, -8.85 8.63, 0 0 M-24.83 24.21 C-18.61 18.14, -12.39 12.08, 0 0" stroke="#e95d8e" stroke-width="2" fill="none"></path></g></g><mask></mask><g stroke-linecap="round"><g transform="translate(884.0109958598321 299.3532303404223) rotate(0 7.758672032807681 28.862259962044924)"><path d="M0 0 C4.67 4.48, 9.33 8.96, 15.52 14.9 M0 0 C4.36 4.18, 8.71 8.36, 15.52 14.9 M15.52 14.9 C15.52 21.08, 15.52 27.27, 15.52 43.45 M15.52 14.9 C15.52 21.01, 15.52 27.13, 15.52 43.45 M15.52 43.45 C10.37 48.38, 5.23 53.31, 0.62 57.72 M15.52 43.45 C10.7 48.06, 5.89 52.68, 0.62 57.72 M0.62 57.72 C0.42 38.74, 0.21 19.76, 0 0 M0.62 57.72 C0.47 44.07, 0.33 30.42, 0 0" stroke="#e95d8e" stroke-width="2" fill="none"></path></g></g><mask></mask><g stroke-linecap="round"><g transform="translate(859.4935922361594 299.3532303404223) rotate(0 -7.758672032807681 28.862259962044924)"><path d="M0 0 C-3.29 3.16, -6.58 6.32, -15.52 14.9 M0 0 C-3.42 3.28, -6.84 6.56, -15.52 14.9 M-15.52 14.9 C-15.52 21.75, -15.52 28.6, -15.52 43.45 M-15.52 14.9 C-15.52 23.54, -15.52 32.19, -15.52 43.45 M-15.52 43.45 C-11.55 47.26, -7.57 51.06, -0.62 57.72 M-15.52 43.45 C-9.97 48.76, -4.43 54.08, -0.62 57.72 M-0.62 57.72 C-0.38 35.02, -0.13 12.31, 0 0 M-0.62 57.72 C-0.48 44.57, -0.34 31.41, 0 0" stroke="#e95d8e" stroke-width="2" fill="none"></path></g></g><mask></mask><g stroke-linecap="round" transform="translate(864.3039688965002 327.43962309918453) rotate(0 1.1638008049212658 1.163800804921209)"><path d="M2.33 1.16 C2.33 1.23, 2.32 1.3, 2.31 1.37 C2.3 1.43, 2.28 1.5, 2.26 1.56 C2.23 1.63, 2.21 1.69, 2.17 1.75 C2.14 1.8, 2.1 1.86, 2.06 1.91 C2.01 1.96, 1.96 2.01, 1.91 2.06 C1.86 2.1, 1.8 2.14, 1.75 2.17 C1.69 2.21, 1.63 2.23, 1.56 2.26 C1.5 2.28, 1.43 2.3, 1.37 2.31 C1.3 2.32, 1.23 2.33, 1.16 2.33 C1.1 2.33, 1.03 2.32, 0.96 2.31 C0.9 2.3, 0.83 2.28, 0.77 2.26 C0.7 2.23, 0.64 2.21, 0.58 2.17 C0.52 2.14, 0.47 2.1, 0.42 2.06 C0.36 2.01, 0.32 1.96, 0.27 1.91 C0.23 1.86, 0.19 1.8, 0.16 1.75 C0.12 1.69, 0.09 1.63, 0.07 1.56 C0.05 1.5, 0.03 1.43, 0.02 1.37 C0.01 1.3, 0 1.23, 0 1.16 C0 1.1, 0.01 1.03, 0.02 0.96 C0.03 0.9, 0.05 0.83, 0.07 0.77 C0.09 0.7, 0.12 0.64, 0.16 0.58 C0.19 0.52, 0.23 0.47, 0.27 0.42 C0.32 0.36, 0.36 0.32, 0.42 0.27 C0.47 0.23, 0.52 0.19, 0.58 0.16 C0.64 0.12, 0.7 0.09, 0.77 0.07 C0.83 0.05, 0.9 0.03, 0.96 0.02 C1.03 0.01, 1.1 0, 1.16 0 C1.23 0, 1.3 0.01, 1.37 0.02 C1.43 0.03, 1.5 0.05, 1.56 0.07 C1.63 0.09, 1.69 0.12, 1.75 0.16 C1.8 0.19, 1.86 0.23, 1.91 0.27 C1.96 0.32, 2.01 0.36, 2.06 0.42 C2.1 0.47, 2.14 0.52, 2.17 0.58 C2.21 0.64, 2.23 0.7, 2.26 0.77 C2.28 0.83, 2.3 0.9, 2.31 0.96 C2.32 1.03, 2.32 1.13, 2.33 1.16 C2.33 1.2, 2.33 1.13, 2.33 1.16" stroke="#e95d8e" stroke-width="2" fill="none"></path></g><g stroke-linecap="round" transform="translate(876.8730175896492 327.43962309918453) rotate(0 1.1638008049212658 1.163800804921209)"><path d="M2.33 1.16 C2.33 1.23, 2.32 1.3, 2.31 1.37 C2.3 1.43, 2.28 1.5, 2.26 1.56 C2.23 1.63, 2.21 1.69, 2.17 1.75 C2.14 1.8, 2.1 1.86, 2.06 1.91 C2.01 1.96, 1.96 2.01, 1.91 2.06 C1.86 2.1, 1.8 2.14, 1.75 2.17 C1.69 2.21, 1.63 2.23, 1.56 2.26 C1.5 2.28, 1.43 2.3, 1.37 2.31 C1.3 2.32, 1.23 2.33, 1.16 2.33 C1.1 2.33, 1.03 2.32, 0.96 2.31 C0.9 2.3, 0.83 2.28, 0.77 2.26 C0.7 2.23, 0.64 2.21, 0.58 2.17 C0.52 2.14, 0.47 2.1, 0.42 2.06 C0.36 2.01, 0.32 1.96, 0.27 1.91 C0.23 1.86, 0.19 1.8, 0.16 1.75 C0.12 1.69, 0.09 1.63, 0.07 1.56 C0.05 1.5, 0.03 1.43, 0.02 1.37 C0.01 1.3, 0 1.23, 0 1.16 C0 1.1, 0.01 1.03, 0.02 0.96 C0.03 0.9, 0.05 0.83, 0.07 0.77 C0.09 0.7, 0.12 0.64, 0.16 0.58 C0.19 0.52, 0.23 0.47, 0.27 0.42 C0.32 0.36, 0.36 0.32, 0.42 0.27 C0.47 0.23, 0.52 0.19, 0.58 0.16 C0.64 0.12, 0.7 0.09, 0.77 0.07 C0.83 0.05, 0.9 0.03, 0.96 0.02 C1.03 0.01, 1.1 0, 1.16 0 C1.23 0, 1.3 0.01, 1.37 0.02 C1.43 0.03, 1.5 0.05, 1.56 0.07 C1.63 0.09, 1.69 0.12, 1.75 0.16 C1.8 0.19, 1.86 0.23, 1.91 0.27 C1.96 0.32, 2.01 0.36, 2.06 0.42 C2.1 0.47, 2.14 0.52, 2.17 0.58 C2.21 0.64, 2.23 0.7, 2.26 0.77 C2.28 0.83, 2.3 0.9, 2.31 0.96 C2.32 1.03, 2.32 1.13, 2.33 1.16 C2.33 1.2, 2.33 1.13, 2.33 1.16" stroke="#e95d8e" stroke-width="2" fill="none"></path></g><g stroke-linecap="round" transform="translate(870.5884932430743 327.43962309918453) rotate(0 1.1638008049212658 1.163800804921209)"><path d="M2.33 1.16 C2.33 1.23, 2.32 1.3, 2.31 1.37 C2.3 1.43, 2.28 1.5, 2.26 1.56 C2.23 1.63, 2.21 1.69, 2.17 1.75 C2.14 1.8, 2.1 1.86, 2.06 1.91 C2.01 1.96, 1.96 2.01, 1.91 2.06 C1.86 2.1, 1.8 2.14, 1.75 2.17 C1.69 2.21, 1.63 2.23, 1.56 2.26 C1.5 2.28, 1.43 2.3, 1.37 2.31 C1.3 2.32, 1.23 2.33, 1.16 2.33 C1.1 2.33, 1.03 2.32, 0.96 2.31 C0.9 2.3, 0.83 2.28, 0.77 2.26 C0.7 2.23, 0.64 2.21, 0.58 2.17 C0.52 2.14, 0.47 2.1, 0.42 2.06 C0.36 2.01, 0.32 1.96, 0.27 1.91 C0.23 1.86, 0.19 1.8, 0.16 1.75 C0.12 1.69, 0.09 1.63, 0.07 1.56 C0.05 1.5, 0.03 1.43, 0.02 1.37 C0.01 1.3, 0 1.23, 0 1.16 C0 1.1, 0.01 1.03, 0.02 0.96 C0.03 0.9, 0.05 0.83, 0.07 0.77 C0.09 0.7, 0.12 0.64, 0.16 0.58 C0.19 0.52, 0.23 0.47, 0.27 0.42 C0.32 0.36, 0.36 0.32, 0.42 0.27 C0.47 0.23, 0.52 0.19, 0.58 0.16 C0.64 0.12, 0.7 0.09, 0.77 0.07 C0.83 0.05, 0.9 0.03, 0.96 0.02 C1.03 0.01, 1.1 0, 1.16 0 C1.23 0, 1.3 0.01, 1.37 0.02 C1.43 0.03, 1.5 0.05, 1.56 0.07 C1.63 0.09, 1.69 0.12, 1.75 0.16 C1.8 0.19, 1.86 0.23, 1.91 0.27 C1.96 0.32, 2.01 0.36, 2.06 0.42 C2.1 0.47, 2.14 0.52, 2.17 0.58 C2.21 0.64, 2.23 0.7, 2.26 0.77 C2.28 0.83, 2.3 0.9, 2.31 0.96 C2.32 1.03, 2.32 1.13, 2.33 1.16 C2.33 1.2, 2.33 1.13, 2.33 1.16" stroke="#e95d8e" stroke-width="2" fill="none"></path></g><g transform="translate(768.4515127295642 381.3467250725746) rotate(0 103.29309418773869 9.615648040749504)"><text x="103.2930941877388" y="15.475183565581233" font-family="Cascadia, Segoe UI Emoji" font-size="16.02608006791584px" fill="#000000" text-anchor="middle" style="white-space: pre;" direction="ltr" dominant-baseline="alphabetic">GET /spreadsheets/{id}</text></g><g stroke-linecap="round" transform="translate(1202.7213080902259 281.261824013814) rotate(0 50.314233923481424 50.26605330094392)"><path d="M0 0 C0 0, 0 0, 0 0 M0 0 C0 0, 0 0, 0 0 M0.13 12.04 C3.64 8.01, 7.14 3.98, 10.63 -0.03 M0.13 12.04 C3.79 7.83, 7.45 3.62, 10.63 -0.03 M0.27 24.08 C5.26 18.34, 10.25 12.59, 21.26 -0.07 M0.27 24.08 C6.51 16.9, 12.75 9.72, 21.26 -0.07 M-0.26 36.88 C11.91 22.89, 24.07 8.9, 31.89 -0.1 M-0.26 36.88 C8.94 26.3, 18.14 15.72, 31.89 -0.1 M-0.12 48.92 C14.17 32.48, 28.46 16.04, 42.52 -0.14 M-0.12 48.92 C14.92 31.61, 29.96 14.31, 42.52 -0.14 M0.01 60.96 C13.54 45.39, 27.08 29.82, 53.15 -0.17 M0.01 60.96 C17.37 40.99, 34.72 21.03, 53.15 -0.17 M0.14 73 C13.48 57.65, 26.82 42.31, 63.78 -0.21 M0.14 73 C20.41 49.69, 40.67 26.38, 63.78 -0.21 M0.28 85.04 C19.39 63.05, 38.51 41.06, 74.41 -0.24 M0.28 85.04 C23.37 58.47, 46.47 31.9, 74.41 -0.24 M-0.25 97.84 C17.01 77.98, 34.27 58.13, 85.04 -0.28 M-0.25 97.84 C21.26 73.1, 42.76 48.36, 85.04 -0.28 M7.76 100.82 C29.74 75.53, 51.72 50.25, 95.67 -0.31 M7.76 100.82 C28.86 76.55, 49.96 52.27, 95.67 -0.31 M18.39 100.79 C48.86 65.73, 79.34 30.67, 100.4 6.45 M18.39 100.79 C36.38 80.09, 54.37 59.4, 100.4 6.45 M29.02 100.75 C54.8 71.09, 80.59 41.43, 100.53 18.49 M29.02 100.75 C55.41 70.39, 81.8 40.03, 100.53 18.49 M39.65 100.72 C63.62 73.15, 87.59 45.57, 100.66 30.53 M39.65 100.72 C63.66 73.1, 87.67 45.47, 100.66 30.53 M50.28 100.68 C64.73 84.06, 79.17 67.44, 100.8 42.57 M50.28 100.68 C66.11 82.47, 81.94 64.26, 100.8 42.57 M60.91 100.65 C71.26 88.74, 81.62 76.83, 100.93 54.61 M60.91 100.65 C75.15 84.27, 89.39 67.89, 100.93 54.61 M71.54 100.61 C82.8 87.66, 94.06 74.71, 100.41 67.41 M71.54 100.61 C81.51 89.14, 91.49 77.66, 100.41 67.41 M82.17 100.58 C89.13 92.57, 96.1 84.56, 100.54 79.45 M82.17 100.58 C89.43 92.23, 96.69 83.88, 100.54 79.45 M92.8 100.54 C94.4 98.7, 96.01 96.85, 100.67 91.49 M92.8 100.54 C95.13 97.86, 97.46 95.18, 100.67 91.49 M0.03 100.56 C0.03 100.56, 0.03 100.56, 0.03 100.56 M0.03 100.56 C0.03 100.56, 0.03 100.56, 0.03 100.56 M12.07 100.43 C8.15 97.02, 4.22 93.6, 0 89.93 M12.07 100.43 C9.02 97.77, 5.97 95.12, 0 89.93 M24.12 100.3 C16.66 93.82, 9.21 87.34, -0.04 79.3 M24.12 100.3 C19.28 96.09, 14.44 91.89, -0.04 79.3 M36.91 100.82 C25.09 90.54, 13.27 80.27, -0.07 68.67 M36.91 100.82 C27.21 92.38, 17.51 83.95, -0.07 68.67 M48.95 100.69 C33.1 86.9, 17.24 73.12, -0.1 58.04 M48.95 100.69 C30.16 84.35, 11.38 68.02, -0.1 58.04 M60.99 100.55 C47.57 88.89, 34.15 77.22, -0.14 47.41 M60.99 100.55 C47.05 88.43, 33.1 76.3, -0.14 47.41 M73.03 100.42 C58.13 87.46, 43.22 74.5, -0.17 36.78 M73.03 100.42 C52.76 82.8, 32.49 65.18, -0.17 36.78 M85.07 100.29 C65.91 83.63, 46.75 66.97, -0.21 26.15 M85.07 100.29 C67.01 84.58, 48.94 68.87, -0.21 26.15 M97.87 100.81 C63.97 71.34, 30.07 41.87, -0.24 15.52 M97.87 100.81 C77.27 82.9, 56.66 64.98, -0.24 15.52 M101.61 93.46 C81.04 75.58, 60.47 57.7, -0.28 4.89 M101.61 93.46 C67.68 63.96, 33.74 34.46, -0.28 4.89 M101.57 82.83 C67.17 52.92, 32.76 23.01, 6.48 0.17 M101.57 82.83 C80.82 64.79, 60.07 46.75, 6.48 0.17 M101.54 72.2 C69.56 44.4, 37.58 16.6, 18.52 0.03 M101.54 72.2 C79.21 52.79, 56.89 33.38, 18.52 0.03 M101.51 61.57 C74.35 37.96, 47.19 14.36, 30.56 -0.1 M101.51 61.57 C77.01 40.28, 52.52 18.99, 30.56 -0.1 M101.47 50.94 C85.23 36.82, 68.99 22.7, 42.6 -0.23 M101.47 50.94 C80.6 32.79, 59.72 14.65, 42.6 -0.23 M101.44 40.31 C84.79 25.84, 68.15 11.37, 54.64 -0.37 M101.44 40.31 C85.41 26.38, 69.39 12.45, 54.64 -0.37 M101.4 29.68 C89.77 19.57, 78.14 9.46, 67.44 0.16 M101.4 29.68 C91.79 21.32, 82.18 12.97, 67.44 0.16 M101.37 19.05 C93.82 12.48, 86.27 5.92, 79.48 0.02 M101.37 19.05 C93.29 12.02, 85.2 5, 79.48 0.02 M101.33 8.42 C98.19 5.69, 95.05 2.95, 91.52 -0.11 M101.33 8.42 C99.33 6.67, 97.32 4.93, 91.52 -0.11" stroke="#fd7e1488" stroke-width="1" fill="none"></path><path d="M0 0 C25.73 0, 51.47 0, 100.63 0 M0 0 C23.41 0, 46.82 0, 100.63 0 M100.63 0 C100.63 39.81, 100.63 79.63, 100.63 100.53 M100.63 0 C100.63 20.79, 100.63 41.57, 100.63 100.53 M100.63 100.53 C60.76 100.53, 20.88 100.53, 0 100.53 M100.63 100.53 C67.87 100.53, 35.11 100.53, 0 100.53 M0 100.53 C0 71.05, 0 41.58, 0 0 M0 100.53 C0 67.28, 0 34.02, 0 0" stroke="#000000" stroke-width="2" fill="none"></path></g><g stroke-linecap="round"><g transform="translate(1241.734369960557 323.000919846791) rotate(0 -4.80306436101705 20.994070074607805)"><path d="M0 0 C-5.54 11.09, -11.09 22.18, -19.87 39.75 M0 0 C-4.54 9.09, -9.08 18.17, -19.87 39.75 M-19.87 39.75 C-14.14 40.43, -8.41 41.1, -0.81 41.99 M-19.87 39.75 C-15.64 40.25, -11.41 40.75, -0.81 41.99 M-0.81 41.99 C2.16 36.25, 5.12 30.52, 10.27 20.58 M-0.81 41.99 C1.98 36.61, 4.76 31.22, 10.27 20.58 M10.27 20.58 C8.12 15.8, 5.97 11.03, 1.4 0.88 M10.27 20.58 C8.37 16.37, 6.48 12.16, 1.4 0.88" stroke="#000000" stroke-width="2" fill="none"></path></g></g><mask></mask><g stroke-linecap="round"><g transform="translate(1279.9598910057377 347.8172734903973) rotate(0 -19.89785444551967 -17.171786505609234)"><path d="M0 0 C-7.87 -17.05, -15.73 -34.09, -23.35 -50.61 M0 0 C-6.01 -13.01, -12.01 -26.03, -23.35 -50.61 M-23.35 -50.61 C-29.78 -50.87, -36.21 -51.13, -45.54 -51.52 M-23.35 -50.61 C-27.85 -50.79, -32.34 -50.98, -45.54 -51.52 M-45.54 -51.52 C-45.97 -47.24, -46.4 -42.97, -47.11 -35.91 M-45.54 -51.52 C-46.03 -46.7, -46.51 -41.88, -47.11 -35.91 M-47.11 -35.91 C-42.74 -35.31, -38.38 -34.71, -35.74 -34.34 M-47.11 -35.91 C-44.07 -35.49, -41.02 -35.07, -35.74 -34.34 M-35.74 -34.34 C-30.63 -23.31, -25.52 -12.28, -12.28 16.27 M-35.74 -34.34 C-29.2 -20.22, -22.65 -6.1, -12.28 16.27 M-12.28 16.27 C-6.28 16.57, -0.28 16.87, 5.76 17.17 M-12.28 16.27 C-7.97 16.49, -3.65 16.7, 5.76 17.17 M5.76 17.17 C6.08 13.98, 6.4 10.78, 7.31 1.56 M5.76 17.17 C6.12 13.54, 6.48 9.92, 7.31 1.56 M7.31 1.56 C6.86 1.11, 6.41 0.65, 5.76 0 M7.31 1.56 C6.81 1.06, 6.31 0.56, 5.76 0" stroke="#000000" stroke-width="2" fill="none"></path></g></g><mask></mask><g transform="translate(1189.3320555346424 388.4456761140867) rotate(0 63.51644953675009 8.672177896066783)"><text x="63.51644953675018" y="13.95678630148248" font-family="Cascadia, Segoe UI Emoji" font-size="14.453629826777973px" fill="#000000" text-anchor="middle" style="white-space: pre;" direction="ltr" dominant-baseline="alphabetic">get-spreadsheet</text></g><g stroke-linecap="round" transform="translate(1205.6120784703592 128.58131842656235) rotate(0 50.314233923481424 50.26605330094392)"><path d="M0 0 C0 0, 0 0, 0 0 M0 0 C0 0, 0 0, 0 0 M0.13 12.04 C2.99 8.76, 5.84 5.48, 10.63 -0.03 M0.13 12.04 C2.92 8.84, 5.7 5.63, 10.63 -0.03 M0.27 24.08 C7.29 16, 14.31 7.92, 21.26 -0.07 M0.27 24.08 C5.58 17.97, 10.89 11.86, 21.26 -0.07 M-0.26 36.88 C8.49 26.81, 17.24 16.75, 31.89 -0.1 M-0.26 36.88 C11.38 23.49, 23.02 10.1, 31.89 -0.1 M-0.12 48.92 C10.92 36.22, 21.96 23.51, 42.52 -0.14 M-0.12 48.92 C13.56 33.18, 27.25 17.43, 42.52 -0.14 M0.01 60.96 C17.16 41.23, 34.32 21.49, 53.15 -0.17 M0.01 60.96 C17.14 41.26, 34.27 21.55, 53.15 -0.17 M0.14 73 C15.16 55.72, 30.18 38.45, 63.78 -0.21 M0.14 73 C18.07 52.38, 35.99 31.76, 63.78 -0.21 M0.28 85.04 C22.93 58.98, 45.58 32.92, 74.41 -0.24 M0.28 85.04 C29.69 51.21, 59.1 17.37, 74.41 -0.24 M-0.25 97.84 C22.28 71.92, 44.81 46.01, 85.04 -0.28 M-0.25 97.84 C17.4 77.53, 35.05 57.23, 85.04 -0.28 M7.76 100.82 C30.64 74.5, 53.53 48.17, 95.67 -0.31 M7.76 100.82 C38.78 65.13, 69.8 29.45, 95.67 -0.31 M18.39 100.79 C47.05 67.81, 75.71 34.84, 100.4 6.45 M18.39 100.79 C37.7 78.57, 57.01 56.35, 100.4 6.45 M29.02 100.75 C49.37 77.35, 69.71 53.94, 100.53 18.49 M29.02 100.75 C55.88 69.85, 82.74 38.95, 100.53 18.49 M39.65 100.72 C52.23 86.25, 64.8 71.78, 100.66 30.53 M39.65 100.72 C56.32 81.54, 72.99 62.36, 100.66 30.53 M50.28 100.68 C62.08 87.1, 73.89 73.52, 100.8 42.57 M50.28 100.68 C68.82 79.36, 87.36 58.03, 100.8 42.57 M60.91 100.65 C75.15 84.27, 89.39 67.89, 100.93 54.61 M60.91 100.65 C72.65 87.14, 84.39 73.64, 100.93 54.61 M71.54 100.61 C77.92 93.28, 84.29 85.94, 100.41 67.41 M71.54 100.61 C78.65 92.44, 85.75 84.27, 100.41 67.41 M82.17 100.58 C86.36 95.76, 90.55 90.94, 100.54 79.45 M82.17 100.58 C86.51 95.59, 90.84 90.6, 100.54 79.45 M92.8 100.54 C95.3 97.67, 97.8 94.8, 100.67 91.49 M92.8 100.54 C94.76 98.28, 96.73 96.02, 100.67 91.49 M0.03 100.56 C0.03 100.56, 0.03 100.56, 0.03 100.56 M0.03 100.56 C0.03 100.56, 0.03 100.56, 0.03 100.56 M12.07 100.43 C9.04 97.79, 6 95.14, 0 89.93 M12.07 100.43 C9.29 98.01, 6.5 95.58, 0 89.93 M24.12 100.3 C14.5 91.94, 4.88 83.58, -0.04 79.3 M24.12 100.3 C17.2 94.28, 10.28 88.27, -0.04 79.3 M36.91 100.82 C25.42 90.83, 13.93 80.84, -0.07 68.67 M36.91 100.82 C23.57 89.23, 10.24 77.63, -0.07 68.67 M48.95 100.69 C29.61 83.87, 10.27 67.06, -0.1 58.04 M48.95 100.69 C38.61 91.7, 28.27 82.7, -0.1 58.04 M60.99 100.55 C46.4 87.86, 31.8 75.18, -0.14 47.41 M60.99 100.55 C47.12 88.49, 33.24 76.42, -0.14 47.41 M73.03 100.42 C50.37 80.72, 27.71 61.02, -0.17 36.78 M73.03 100.42 C51.74 81.91, 30.45 63.4, -0.17 36.78 M85.07 100.29 C56.23 75.22, 27.39 50.15, -0.21 26.15 M85.07 100.29 C56.5 75.44, 27.92 50.6, -0.21 26.15 M97.87 100.81 C76.99 82.66, 56.12 64.51, -0.24 15.52 M97.87 100.81 C77.96 83.5, 58.06 66.2, -0.24 15.52 M101.61 93.46 C64.01 60.78, 26.41 28.09, -0.28 4.89 M101.61 93.46 C80.49 75.1, 59.38 56.75, -0.28 4.89 M101.57 82.83 C74.91 59.65, 48.24 36.47, 6.48 0.17 M101.57 82.83 C64.46 50.56, 27.34 18.29, 6.48 0.17 M101.54 72.2 C80.85 54.22, 60.17 36.23, 18.52 0.03 M101.54 72.2 C78.05 51.78, 54.56 31.36, 18.52 0.03 M101.51 61.57 C80.45 43.27, 59.4 24.97, 30.56 -0.1 M101.51 61.57 C75.7 39.13, 49.88 16.69, 30.56 -0.1 M101.47 50.94 C80.61 32.8, 59.75 14.67, 42.6 -0.23 M101.47 50.94 C88.58 39.73, 75.69 28.53, 42.6 -0.23 M101.44 40.31 C84.88 25.91, 68.32 11.52, 54.64 -0.37 M101.44 40.31 C92.02 32.13, 82.61 23.94, 54.64 -0.37 M101.4 29.68 C93.99 23.24, 86.59 16.8, 67.44 0.16 M101.4 29.68 C88.19 18.19, 74.97 6.7, 67.44 0.16 M101.37 19.05 C93.67 12.36, 85.97 5.66, 79.48 0.02 M101.37 19.05 C95.96 14.34, 90.54 9.64, 79.48 0.02 M101.33 8.42 C99.06 6.44, 96.79 4.46, 91.52 -0.11 M101.33 8.42 C97.56 5.14, 93.79 1.86, 91.52 -0.11" stroke="#fd7e1488" stroke-width="1" fill="none"></path><path d="M0 0 C31.32 0, 62.64 0, 100.63 0 M0 0 C40.23 0, 80.46 0, 100.63 0 M100.63 0 C100.63 28.42, 100.63 56.85, 100.63 100.53 M100.63 0 C100.63 24.83, 100.63 49.65, 100.63 100.53 M100.63 100.53 C71.49 100.53, 42.35 100.53, 0 100.53 M100.63 100.53 C75.86 100.53, 51.09 100.53, 0 100.53 M0 100.53 C0 70.64, 0 40.74, 0 0 M0 100.53 C0 60.42, 0 20.31, 0 0" stroke="#000000" stroke-width="2" fill="none"></path></g><g stroke-linecap="round"><g transform="translate(1244.6251403406911 170.32041425953952) rotate(0 -4.80306436101705 20.994070074607805)"><path d="M0 0 C-4.42 8.83, -8.83 17.66, -19.87 39.75 M0 0 C-5.86 11.73, -11.73 23.46, -19.87 39.75 M-19.87 39.75 C-14.94 40.33, -10 40.91, -0.81 41.99 M-19.87 39.75 C-14.98 40.33, -10.09 40.9, -0.81 41.99 M-0.81 41.99 C2.46 35.66, 5.73 29.34, 10.27 20.58 M-0.81 41.99 C2.94 34.74, 6.69 27.48, 10.27 20.58 M10.27 20.58 C7.7 14.87, 5.13 9.17, 1.4 0.88 M10.27 20.58 C7.64 14.74, 5.02 8.91, 1.4 0.88" stroke="#000000" stroke-width="2" fill="none"></path></g></g><mask></mask><g stroke-linecap="round"><g transform="translate(1282.850661385872 195.13676790314574) rotate(0 -19.89785444551967 -17.171786505609234)"><path d="M0 0 C-8.31 -18.01, -16.62 -36.02, -23.35 -50.61 M0 0 C-9.11 -19.74, -18.22 -39.48, -23.35 -50.61 M-23.35 -50.61 C-31.02 -50.92, -38.69 -51.24, -45.54 -51.52 M-23.35 -50.61 C-31.77 -50.95, -40.18 -51.3, -45.54 -51.52 M-45.54 -51.52 C-46.16 -45.35, -46.78 -39.18, -47.11 -35.91 M-45.54 -51.52 C-45.86 -48.33, -46.18 -45.15, -47.11 -35.91 M-47.11 -35.91 C-43.75 -35.44, -40.38 -34.98, -35.74 -34.34 M-47.11 -35.91 C-43.92 -35.47, -40.72 -35.03, -35.74 -34.34 M-35.74 -34.34 C-30.85 -23.79, -25.96 -13.24, -12.28 16.27 M-35.74 -34.34 C-28.11 -17.89, -20.48 -1.43, -12.28 16.27 M-12.28 16.27 C-7.72 16.5, -3.15 16.73, 5.76 17.17 M-12.28 16.27 C-6.71 16.55, -1.15 16.83, 5.76 17.17 M5.76 17.17 C6.07 14.05, 6.38 10.92, 7.31 1.56 M5.76 17.17 C6.26 12.18, 6.75 7.19, 7.31 1.56 M7.31 1.56 C6.91 1.15, 6.5 0.74, 5.76 0 M7.31 1.56 C6.81 1.06, 6.31 0.55, 5.76 0" stroke="#000000" stroke-width="2" fill="none"></path></g></g><mask></mask><g transform="translate(1185.0976255655262 235.76517052683505) rotate(0 67.7508795058668 8.672177896066785)"><text x="67.75087950586686" y="13.95678630148248" font-family="Cascadia, Segoe UI Emoji" font-size="14.453629826777973px" fill="#000000" text-anchor="middle" style="white-space: pre;" direction="ltr" dominant-baseline="alphabetic">get-spreadsheets</text></g><g stroke-linecap="round" transform="translate(1202.721202228345 439.1372541334847) rotate(0 50.314233923481424 50.266053300943916)"><path d="M0 0 C0 0, 0 0, 0 0 M0 0 C0 0, 0 0, 0 0 M0.13 12.04 C2.24 9.62, 4.34 7.2, 10.63 -0.03 M0.13 12.04 C3.49 8.18, 6.84 4.32, 10.63 -0.03 M0.27 24.08 C5.77 17.75, 11.28 11.41, 21.26 -0.07 M0.27 24.08 C7.05 16.28, 13.84 8.47, 21.26 -0.07 M-0.26 36.88 C12.06 22.71, 24.37 8.55, 31.89 -0.1 M-0.26 36.88 C6.8 28.76, 13.86 20.64, 31.89 -0.1 M-0.12 48.92 C9.61 37.73, 19.33 26.53, 42.52 -0.14 M-0.12 48.92 C8.56 38.93, 17.24 28.94, 42.52 -0.14 M0.01 60.96 C14.72 44.03, 29.44 27.11, 53.15 -0.17 M0.01 60.96 C11.95 47.22, 23.89 33.49, 53.15 -0.17 M0.14 73 C13.63 57.49, 27.11 41.98, 63.78 -0.21 M0.14 73 C22.13 47.71, 44.12 22.41, 63.78 -0.21 M0.28 85.04 C15.85 67.13, 31.42 49.22, 74.41 -0.24 M0.28 85.04 C15.24 67.82, 30.21 50.61, 74.41 -0.24 M-0.25 97.84 C28.16 65.16, 56.56 32.48, 85.04 -0.28 M-0.25 97.84 C30.61 62.33, 61.48 26.83, 85.04 -0.28 M7.76 100.82 C26.94 78.75, 46.13 56.68, 95.67 -0.31 M7.76 100.82 C41.62 61.86, 75.49 22.91, 95.67 -0.31 M18.39 100.79 C40.44 75.42, 62.5 50.04, 100.4 6.45 M18.39 100.79 C49.78 64.67, 81.17 28.56, 100.4 6.45 M29.02 100.75 C53.71 72.35, 78.39 43.95, 100.53 18.49 M29.02 100.75 C48.75 78.05, 68.48 55.36, 100.53 18.49 M39.65 100.72 C61.28 75.83, 82.92 50.94, 100.66 30.53 M39.65 100.72 C61.35 75.75, 83.05 50.79, 100.66 30.53 M50.28 100.68 C67.58 80.78, 84.88 60.88, 100.8 42.57 M50.28 100.68 C67.58 80.78, 84.87 60.89, 100.8 42.57 M60.91 100.65 C72.23 87.62, 83.56 74.6, 100.93 54.61 M60.91 100.65 C74.72 84.76, 88.52 68.88, 100.93 54.61 M71.54 100.61 C82.2 88.35, 92.86 76.09, 100.41 67.41 M71.54 100.61 C80.79 89.98, 90.03 79.34, 100.41 67.41 M82.17 100.58 C85.93 96.25, 89.69 91.93, 100.54 79.45 M82.17 100.58 C86.44 95.67, 90.71 90.75, 100.54 79.45 M92.8 100.54 C95.1 97.89, 97.41 95.24, 100.67 91.49 M92.8 100.54 C95.26 97.71, 97.72 94.88, 100.67 91.49 M0.03 100.56 C0.03 100.56, 0.03 100.56, 0.03 100.56 M0.03 100.56 C0.03 100.56, 0.03 100.56, 0.03 100.56 M12.07 100.43 C7.39 96.36, 2.71 92.29, 0 89.93 M12.07 100.43 C8.59 97.4, 5.1 94.36, 0 89.93 M24.12 100.3 C16.38 93.57, 8.65 86.85, -0.04 79.3 M24.12 100.3 C16.51 93.68, 8.9 87.07, -0.04 79.3 M36.91 100.82 C28.14 93.19, 19.36 85.56, -0.07 68.67 M36.91 100.82 C22.61 88.39, 8.31 75.96, -0.07 68.67 M48.95 100.69 C38.92 91.96, 28.88 83.24, -0.1 58.04 M48.95 100.69 C36.24 89.63, 23.53 78.58, -0.1 58.04 M60.99 100.55 C46.83 88.24, 32.67 75.93, -0.14 47.41 M60.99 100.55 C48.14 89.38, 35.29 78.21, -0.14 47.41 M73.03 100.42 C53.77 83.67, 34.5 66.92, -0.17 36.78 M73.03 100.42 C58.37 87.67, 43.71 74.93, -0.17 36.78 M85.07 100.29 C62.11 80.33, 39.15 60.37, -0.21 26.15 M85.07 100.29 C56.83 75.73, 28.59 51.18, -0.21 26.15 M97.87 100.81 C74.72 80.69, 51.57 60.56, -0.24 15.52 M97.87 100.81 C77.66 83.24, 57.45 65.68, -0.24 15.52 M101.61 93.46 C75.5 70.76, 49.39 48.07, -0.28 4.89 M101.61 93.46 C62.06 59.08, 22.51 24.7, -0.28 4.89 M101.57 82.83 C71.11 56.34, 40.64 29.86, 6.48 0.17 M101.57 82.83 C67.24 52.98, 32.91 23.14, 6.48 0.17 M101.54 72.2 C84.38 57.28, 67.22 42.37, 18.52 0.03 M101.54 72.2 C69.4 44.26, 37.26 16.32, 18.52 0.03 M101.51 61.57 C82.21 44.8, 62.92 28.02, 30.56 -0.1 M101.51 61.57 C82.52 45.07, 63.54 28.57, 30.56 -0.1 M101.47 50.94 C81.32 33.42, 61.16 15.9, 42.6 -0.23 M101.47 50.94 C89.62 40.64, 77.77 30.34, 42.6 -0.23 M101.44 40.31 C87.22 27.95, 73 15.59, 54.64 -0.37 M101.44 40.31 C85.31 26.29, 69.18 12.26, 54.64 -0.37 M101.4 29.68 C88.06 18.08, 74.72 6.48, 67.44 0.16 M101.4 29.68 C92.2 21.68, 83 13.68, 67.44 0.16 M101.37 19.05 C92.9 11.68, 84.43 4.32, 79.48 0.02 M101.37 19.05 C94.17 12.79, 86.97 6.53, 79.48 0.02 M101.33 8.42 C98.43 5.9, 95.53 3.38, 91.52 -0.11 M101.33 8.42 C98.36 5.83, 95.38 3.24, 91.52 -0.11" stroke="#fd7e1488" stroke-width="1" fill="none"></path><path d="M0 0 C34.77 0, 69.55 0, 100.63 0 M0 0 C38.14 0, 76.29 0, 100.63 0 M100.63 0 C100.63 39.73, 100.63 79.46, 100.63 100.53 M100.63 0 C100.63 20.49, 100.63 40.97, 100.63 100.53 M100.63 100.53 C70.84 100.53, 41.05 100.53, 0 100.53 M100.63 100.53 C72.36 100.53, 44.09 100.53, 0 100.53 M0 100.53 C0 79.57, 0 58.61, 0 0 M0 100.53 C0 67.84, 0 35.15, 0 0" stroke="#000000" stroke-width="2" fill="none"></path></g><g stroke-linecap="round"><g transform="translate(1241.734264098676 480.8763499664616) rotate(0 -4.80306436101705 20.994070074607805)"><path d="M0 0 C-6.78 13.56, -13.56 27.13, -19.87 39.75 M0 0 C-6.8 13.6, -13.6 27.21, -19.87 39.75 M-19.87 39.75 C-14.03 40.44, -8.18 41.12, -0.81 41.99 M-19.87 39.75 C-12.82 40.58, -5.76 41.41, -0.81 41.99 M-0.81 41.99 C3.48 33.69, 7.77 25.4, 10.27 20.58 M-0.81 41.99 C2.51 35.58, 5.82 29.17, 10.27 20.58 M10.27 20.58 C7.59 14.63, 4.91 8.68, 1.4 0.88 M10.27 20.58 C6.89 13.06, 3.51 5.55, 1.4 0.88" stroke="#000000" stroke-width="2" fill="none"></path></g></g><mask></mask><g stroke-linecap="round"><g transform="translate(1279.9597851438573 505.6927036100679) rotate(0 -19.89785444551967 -17.171786505609226)"><path d="M0 0 C-8.2 -17.76, -16.39 -35.52, -23.35 -50.61 M0 0 C-5.46 -11.84, -10.92 -23.67, -23.35 -50.61 M-23.35 -50.61 C-28.78 -50.83, -34.21 -51.05, -45.54 -51.52 M-23.35 -50.61 C-29.72 -50.87, -36.08 -51.13, -45.54 -51.52 M-45.54 -51.52 C-45.89 -48.04, -46.24 -44.56, -47.11 -35.91 M-45.54 -51.52 C-45.98 -47.2, -46.41 -42.89, -47.11 -35.91 M-47.11 -35.91 C-43.67 -35.43, -40.23 -34.96, -35.74 -34.34 M-47.11 -35.91 C-44.83 -35.59, -42.54 -35.28, -35.74 -34.34 M-35.74 -34.34 C-27.99 -17.62, -20.23 -0.89, -12.28 16.27 M-35.74 -34.34 C-27.58 -16.73, -19.41 0.88, -12.28 16.27 M-12.28 16.27 C-7.39 16.51, -2.49 16.76, 5.76 17.17 M-12.28 16.27 C-5.93 16.59, 0.43 16.9, 5.76 17.17 M5.76 17.17 C6.07 14.05, 6.38 10.93, 7.31 1.56 M5.76 17.17 C6.31 11.62, 6.87 6.06, 7.31 1.56 M7.31 1.56 C6.7 0.95, 6.09 0.34, 5.76 0 M7.31 1.56 C6.9 1.14, 6.48 0.72, 5.76 0" stroke="#000000" stroke-width="2" fill="none"></path></g></g><mask></mask><g transform="translate(1193.5664855037592 546.3211062337573) rotate(0 59.2820195676336 8.672177896066785)"><text x="59.282019567633505" y="13.956786301482481" font-family="Cascadia, Segoe UI Emoji" font-size="14.453629826777975px" fill="#000000" text-anchor="middle" style="white-space: pre;" direction="ltr" dominant-baseline="alphabetic">get-upload-url</text></g><g stroke-linecap="round" transform="translate(720.2067772515109 85.73348131565695) rotate(0 142.4004886914597 249.60081741043328)"><path d="M32 0 C78.09 1.04, 122.03 -1.56, 252.8 0 M252.8 0 C274.82 1.79, 283.49 9.38, 284.8 32 M284.8 32 C284.27 149.63, 284.89 268.55, 284.8 467.2 M284.8 467.2 C283.64 489.29, 273.12 501.17, 252.8 499.2 M252.8 499.2 C186.35 497.77, 121.33 499.42, 32 499.2 M32 499.2 C9.03 500.56, 1.81 488.28, 0 467.2 M0 467.2 C1.52 294.81, 3.16 123.87, 0 32 M0 32 C1.12 11.48, 11.37 0.06, 32 0" stroke="#1e1e1e" stroke-width="2.5" fill="none" stroke-dasharray="8 10"></path></g><g stroke-linecap="round" transform="translate(105.21480081563209 250.3668583975633) rotate(0 55.69727137222253 55.64393598382262)"><path d="M0 0 C0 0, 0 0, 0 0 M0 0 C0 0, 0 0, 0 0 M0.13 12.04 C2.67 9.13, 5.2 6.22, 10.63 -0.03 M0.13 12.04 C3.06 8.67, 5.99 5.3, 10.63 -0.03 M0.27 24.08 C5.73 17.8, 11.19 11.51, 21.26 -0.07 M0.27 24.08 C8.51 14.6, 16.75 5.12, 21.26 -0.07 M-0.26 36.88 C7.38 28.1, 15.01 19.32, 31.89 -0.1 M-0.26 36.88 C8.57 26.72, 17.4 16.56, 31.89 -0.1 M-0.12 48.92 C13.88 32.81, 27.89 16.7, 42.52 -0.14 M-0.12 48.92 C12.65 34.22, 25.43 19.53, 42.52 -0.14 M0.01 60.96 C14.05 44.81, 28.09 28.66, 53.15 -0.17 M0.01 60.96 C12.41 46.69, 24.81 32.42, 53.15 -0.17 M0.14 73 C21.9 47.98, 43.65 22.95, 63.78 -0.21 M0.14 73 C25.16 44.22, 50.19 15.43, 63.78 -0.21 M0.28 85.04 C23.64 58.16, 47.01 31.28, 74.41 -0.24 M0.28 85.04 C23 58.9, 45.72 32.76, 74.41 -0.24 M-0.25 97.84 C32.63 60.02, 65.51 22.19, 85.04 -0.28 M-0.25 97.84 C22.85 71.27, 45.94 44.71, 85.04 -0.28 M-0.11 109.88 C27.85 77.71, 55.81 45.55, 95.67 -0.31 M-0.11 109.88 C20.24 86.46, 40.59 63.05, 95.67 -0.31 M8.55 112.11 C38.1 78.11, 67.65 44.12, 106.3 -0.34 M8.55 112.11 C32.68 84.35, 56.81 56.59, 106.3 -0.34 M19.18 112.07 C47.47 79.53, 75.76 46.98, 112.34 4.9 M19.18 112.07 C50.57 75.97, 81.95 39.86, 112.34 4.9 M29.81 112.04 C62.04 74.96, 94.26 37.89, 111.82 17.7 M29.81 112.04 C50.57 88.16, 71.32 64.28, 111.82 17.7 M40.44 112 C66.72 81.76, 93.01 51.53, 111.95 29.74 M40.44 112 C57.07 92.87, 73.71 73.73, 111.95 29.74 M51.07 111.97 C70.35 89.79, 89.63 67.61, 112.08 41.78 M51.07 111.97 C71.72 88.21, 92.38 64.45, 112.08 41.78 M61.7 111.93 C77.29 94, 92.87 76.07, 112.22 53.82 M61.7 111.93 C77.84 93.36, 93.98 74.8, 112.22 53.82 M72.33 111.9 C87.85 94.05, 103.37 76.19, 112.35 65.86 M72.33 111.9 C87.1 94.91, 101.87 77.91, 112.35 65.86 M82.96 111.87 C90.45 103.25, 97.93 94.64, 111.83 78.66 M82.96 111.87 C94.07 99.08, 105.18 86.3, 111.83 78.66 M93.59 111.83 C98.78 105.86, 103.97 99.89, 111.96 90.7 M93.59 111.83 C99.62 104.9, 105.65 97.96, 111.96 90.7 M104.22 111.8 C107.06 108.53, 109.9 105.27, 112.09 102.74 M104.22 111.8 C106.45 109.23, 108.68 106.67, 112.09 102.74 M-0.01 111.28 C-0.01 111.28, -0.01 111.28, -0.01 111.28 M-0.01 111.28 C-0.01 111.28, -0.01 111.28, -0.01 111.28 M12.03 111.15 C8.89 108.41, 5.74 105.68, -0.04 100.65 M12.03 111.15 C9.19 108.67, 6.34 106.2, -0.04 100.65 M24.07 111.01 C18.62 106.27, 13.16 101.53, -0.08 90.02 M24.07 111.01 C15.6 103.65, 7.13 96.28, -0.08 90.02 M36.87 111.54 C28.91 104.62, 20.95 97.7, -0.11 79.39 M36.87 111.54 C24.61 100.88, 12.36 90.23, -0.11 79.39 M48.91 111.4 C33.6 98.09, 18.29 84.78, -0.15 68.76 M48.91 111.4 C35.82 100.02, 22.73 88.64, -0.15 68.76 M60.95 111.27 C37.18 90.61, 13.41 69.94, -0.18 58.13 M60.95 111.27 C47.13 99.26, 33.31 87.24, -0.18 58.13 M72.99 111.14 C51.33 92.31, 29.67 73.48, -0.22 47.5 M72.99 111.14 C57.15 97.37, 41.31 83.6, -0.22 47.5 M85.03 111 C54.91 84.82, 24.79 58.64, -0.25 36.87 M85.03 111 C64.31 92.99, 43.59 74.98, -0.25 36.87 M97.83 111.53 C64.42 82.49, 31.02 53.45, -0.28 26.24 M97.83 111.53 C71.48 88.62, 45.13 65.72, -0.28 26.24 M109.87 111.39 C67.13 74.24, 24.39 37.09, -0.32 15.61 M109.87 111.39 C79.86 85.31, 49.85 59.22, -0.32 15.61 M112.1 102.73 C70.85 66.88, 29.6 31.02, -0.35 4.98 M112.1 102.73 C88.51 82.23, 64.92 61.72, -0.35 4.98 M112.06 92.1 C71.88 57.17, 31.7 22.24, 6.4 0.25 M112.06 92.1 C83.36 67.15, 54.65 42.2, 6.4 0.25 M112.03 81.47 C78.92 52.69, 45.81 23.91, 18.45 0.12 M112.03 81.47 C89.22 61.65, 66.42 41.82, 18.45 0.12 M111.99 70.84 C85.45 47.77, 58.9 24.69, 30.49 -0.01 M111.99 70.84 C82.19 44.93, 52.39 19.02, 30.49 -0.01 M111.96 60.21 C95.43 45.85, 78.91 31.48, 42.53 -0.15 M111.96 60.21 C91.75 42.65, 71.55 25.08, 42.53 -0.15 M111.93 49.58 C98.9 38.26, 85.88 26.94, 54.57 -0.28 M111.93 49.58 C92.07 32.32, 72.21 15.06, 54.57 -0.28 M111.89 38.95 C102.36 30.67, 92.83 22.39, 67.36 0.24 M111.89 38.95 C98.99 27.74, 86.08 16.52, 67.36 0.24 M111.86 28.32 C99.03 17.17, 86.19 6.01, 79.4 0.11 M111.86 28.32 C99.78 17.82, 87.7 7.32, 79.4 0.11 M111.82 17.69 C107.05 13.55, 102.29 9.4, 91.45 -0.02 M111.82 17.69 C105.81 12.46, 99.8 7.24, 91.45 -0.02 M111.79 7.06 C108.89 4.54, 105.99 2.02, 103.49 -0.16 M111.79 7.06 C109.54 5.11, 107.3 3.16, 103.49 -0.16" stroke="#fd7e1488" stroke-width="1" fill="none"></path><path d="M0 0 C38.2 0, 76.39 0, 111.39 0 M0 0 C30.73 0, 61.46 0, 111.39 0 M111.39 0 C111.39 33.93, 111.39 67.85, 111.39 111.29 M111.39 0 C111.39 23.19, 111.39 46.37, 111.39 111.29 M111.39 111.29 C88.23 111.29, 65.06 111.29, 0 111.29 M111.39 111.29 C74.06 111.29, 36.73 111.29, 0 111.29 M0 111.29 C0 79.05, 0 46.81, 0 0 M0 111.29 C0 70.93, 0 30.58, 0 0" stroke="#000000" stroke-width="2" fill="none"></path></g><g stroke-linecap="round"><g transform="translate(148.4018062534526 296.5715517051477) rotate(0 -5.316936347290039 23.24019123358201)"><path d="M0 0 C-7.95 15.91, -15.9 31.82, -22 44.01 M0 0 C-6.28 12.56, -12.56 25.12, -22 44.01 M-22 44.01 C-16.18 44.69, -10.36 45.37, -0.89 46.48 M-22 44.01 C-16.63 44.64, -11.26 45.27, -0.89 46.48 M-0.89 46.48 C2.66 39.6, 6.22 32.72, 11.37 22.78 M-0.89 46.48 C3.43 38.12, 7.76 29.75, 11.37 22.78 M11.37 22.78 C8.05 15.41, 4.74 8.05, 1.55 0.97 M11.37 22.78 C8.55 16.53, 5.74 10.28, 1.55 0.97" stroke="#000000" stroke-width="2" fill="none"></path></g></g><mask></mask><g stroke-linecap="round"><g transform="translate(190.71701316360782 324.04296636405036) rotate(0 -22.026693290462163 -19.00896780826129)"><path d="M0 0 C-8.02 -17.38, -16.04 -34.76, -25.85 -56.02 M0 0 C-7.08 -15.34, -14.16 -30.68, -25.85 -56.02 M-25.85 -56.02 C-31.93 -56.27, -38 -56.52, -50.42 -57.03 M-25.85 -56.02 C-31.05 -56.24, -36.24 -56.45, -50.42 -57.03 M-50.42 -57.03 C-50.96 -51.65, -51.5 -46.27, -52.15 -39.75 M-50.42 -57.03 C-50.83 -52.92, -51.24 -48.81, -52.15 -39.75 M-52.15 -39.75 C-48.74 -39.28, -45.32 -38.81, -39.57 -38.02 M-52.15 -39.75 C-48.78 -39.28, -45.4 -38.82, -39.57 -38.02 M-39.57 -38.02 C-32.09 -21.89, -24.61 -5.76, -13.59 18.01 M-39.57 -38.02 C-30.63 -18.75, -21.7 0.52, -13.59 18.01 M-13.59 18.01 C-9.54 18.21, -5.48 18.42, 6.38 19.01 M-13.59 18.01 C-7.77 18.3, -1.94 18.59, 6.38 19.01 M6.38 19.01 C6.95 13.28, 7.52 7.55, 8.1 1.73 M6.38 19.01 C6.86 14.12, 7.35 9.22, 8.1 1.73 M8.1 1.73 C7.49 1.12, 6.89 0.52, 6.38 0 M8.1 1.73 C7.59 1.22, 7.09 0.71, 6.38 0" stroke="#000000" stroke-width="2" fill="none"></path></g></g><mask></mask><g transform="translate(58.96230288975494 373.0182335490157) rotate(0 99.60937500000011 24)"><text x="99.609375" y="19.3125" font-family="Cascadia, Segoe UI Emoji" font-size="20px" fill="#000000" text-anchor="middle" style="white-space: pre;" direction="ltr" dominant-baseline="alphabetic">API Gateway</text><text x="99.609375" y="43.3125" font-family="Cascadia, Segoe UI Emoji" font-size="20px" fill="#000000" text-anchor="middle" style="white-space: pre;" direction="ltr" dominant-baseline="alphabetic">Custom Authorizer</text></g><g mask="url(#mask-tGbBDM9fLpiuiHG6fwfUt)" stroke-linecap="round"><g transform="translate(410.65319437540825 335.1221753858842) rotate(0 -90.13364397161149 0.5703705874053071)"><path d="M-0.35 1.08 C-30.18 1.41, -149.77 2.28, -179.75 2.23" stroke="#1e1e1e" stroke-width="2.5" fill="none" stroke-dasharray="8 10"></path></g><g transform="translate(410.65319437540825 335.1221753858842) rotate(0 -90.13364397161149 0.5703705874053071)"><path d="M-156.28 -6.4 C-159.92 -3.59, -165.38 -2.34, -179.75 2.23" stroke="#1e1e1e" stroke-width="2.5" fill="none"></path></g><g transform="translate(410.65319437540825 335.1221753858842) rotate(0 -90.13364397161149 0.5703705874053071)"><path d="M-156.22 10.7 C-159.92 9.52, -165.38 6.79, -179.75 2.23" stroke="#1e1e1e" stroke-width="2.5" fill="none"></path></g></g><mask id="mask-tGbBDM9fLpiuiHG6fwfUt"><rect x="0" y="0" fill="#fff" width="690.9204823186312" height="436.2629165606948"></rect><rect x="273.64455040379653" y="316.4925459732895" fill="#000" width="93.75" height="38.4" opacity="1"></rect></mask><g transform="translate(273.64455040379653 316.4925459732895) rotate(0 46.95887410081923 20.28784039794845)"><text x="46.875" y="15.45" font-family="Cascadia, Segoe UI Emoji" font-size="16px" fill="#1e1e1e" text-anchor="middle" style="white-space: pre;" direction="ltr" dominant-baseline="alphabetic">authorized</text><text x="46.875" y="34.65" font-family="Cascadia, Segoe UI Emoji" font-size="16px" fill="#1e1e1e" text-anchor="middle" style="white-space: pre;" direction="ltr" dominant-baseline="alphabetic">by</text></g><g stroke-linecap="round"><g transform="translate(562.7187800835375 319.81039155005806) rotate(0 69.1440268658655 0.6597428043374407)"><path d="M0.16 -0.7 C23.09 -0.42, 115.54 1.24, 138.45 1.61" stroke="#1e1e1e" stroke-width="2.5" fill="none" stroke-dasharray="8 10"></path></g><g transform="translate(562.7187800835375 319.81039155005806) rotate(0 69.1440268658655 0.6597428043374407)"><path d="M114.82 9.76 C122.53 6.95, 133.04 2.56, 138.45 1.61" stroke="#1e1e1e" stroke-width="2.5" fill="none"></path></g><g transform="translate(562.7187800835375 319.81039155005806) rotate(0 69.1440268658655 0.6597428043374407)"><path d="M115.11 -7.34 C122.7 -3.74, 133.1 -1.71, 138.45 1.61" stroke="#1e1e1e" stroke-width="2.5" fill="none"></path></g></g><mask></mask><g stroke-linecap="round"><g transform="translate(1174.8326965301446 343.83513048722267) rotate(0 -111.15308654517389 0)"><path d="M-0.67 0.02 C-37.48 -0.1, -184.79 -0.45, -221.7 -0.63" stroke="#1e1e1e" stroke-width="2.5" fill="none" stroke-dasharray="8 10"></path></g><g transform="translate(1174.8326965301446 343.83513048722267) rotate(0 -111.15308654517389 0)"><path d="M-198.18 -9.1 C-203.55 -6.28, -210.03 -5.1, -221.7 -0.63" stroke="#1e1e1e" stroke-width="2.5" fill="none"></path></g><g transform="translate(1174.8326965301446 343.83513048722267) rotate(0 -111.15308654517389 0)"><path d="M-198.24 8 C-203.6 6.89, -210.07 4.15, -221.7 -0.63" stroke="#1e1e1e" stroke-width="2.5" fill="none"></path></g></g><mask></mask><g stroke-linecap="round"><g transform="translate(1183.4562873609514 190.51485692803593) rotate(0 -115.20329949141183 0)"><path d="M-0.53 0.89 C-38.81 0.93, -191.37 -0.19, -229.73 -0.23" stroke="#1e1e1e" stroke-width="2.5" fill="none" stroke-dasharray="8 10"></path></g><g transform="translate(1183.4562873609514 190.51485692803593) rotate(0 -115.20329949141183 0)"><path d="M-206.19 -8.68 C-211.73 -5.14, -220.59 -4.17, -229.73 -0.23" stroke="#1e1e1e" stroke-width="2.5" fill="none"></path></g><g transform="translate(1183.4562873609514 190.51485692803593) rotate(0 -115.20329949141183 0)"><path d="M-206.27 8.43 C-211.72 6.89, -220.56 2.77, -229.73 -0.23" stroke="#1e1e1e" stroke-width="2.5" fill="none"></path></g></g><mask></mask><g stroke-linecap="round"><g transform="translate(1184.5081222818174 492.7261837865134) rotate(0 -125.10353437408412 0)"><path d="M-1.19 -0.5 C-43.05 -0.44, -209.1 -0.33, -250.43 -0.31" stroke="#1e1e1e" stroke-width="2.5" fill="none" stroke-dasharray="8 10"></path></g><g transform="translate(1184.5081222818174 492.7261837865134) rotate(0 -125.10353437408412 0)"><path d="M-226.94 -8.88 C-236.25 -6.41, -244.37 -1.28, -250.43 -0.31" stroke="#1e1e1e" stroke-width="2.5" fill="none"></path></g><g transform="translate(1184.5081222818174 492.7261837865134) rotate(0 -125.10353437408412 0)"><path d="M-226.93 8.23 C-236.15 4.56, -244.27 3.55, -250.43 -0.31" stroke="#1e1e1e" stroke-width="2.5" fill="none"></path></g></g><mask></mask><g transform="translate(703.4827093162892 35.32153767475529) rotate(0 155.859375 16.80000000000001)"><text x="155.859375" y="27.0375" font-family="Cascadia, Segoe UI Emoji" font-size="28px" fill="#1e1e1e" text-anchor="middle" style="white-space: pre;" direction="ltr" dominant-baseline="alphabetic">available endpoints</text></g><g stroke-linecap="round" transform="translate(10 10) rotate(0 681.0361125113792 309.86766785901654)"><path d="M32 0 C527.93 -0.68, 1023.37 -1.31, 1330.07 0 M32 0 C530.37 -2.32, 1029.13 -2.14, 1330.07 0 M1330.07 0 C1351.24 0.02, 1360.33 10.35, 1362.07 32 M1330.07 0 C1352.43 -1.47, 1362.99 10.09, 1362.07 32 M1362.07 32 C1363.36 248.52, 1364.35 463.5, 1362.07 587.74 M1362.07 32 C1362.47 176.66, 1362.41 321.29, 1362.07 587.74 M1362.07 587.74 C1360.71 609.92, 1349.63 620.86, 1330.07 619.74 M1362.07 587.74 C1361.29 608.39, 1350.24 617.57, 1330.07 619.74 M1330.07 619.74 C848.8 623.43, 367.73 622.27, 32 619.74 M1330.07 619.74 C880.63 622.64, 431.4 622.91, 32 619.74 M32 619.74 C10.57 618.13, -1.6 610.63, 0 587.74 M32 619.74 C12.53 620.65, 1.63 609.93, 0 587.74 M0 587.74 C1.43 442.6, 1.24 297.28, 0 32 M0 587.74 C-0.14 368.57, -0.51 149.01, 0 32 M0 32 C0.09 9.99, 11.63 -0.29, 32 0 M0 32 C0.72 10.35, 8.99 -1.8, 32 0" stroke="#1e1e1e" stroke-width="4" fill="none"></path></g></svg>
